<?xml version="1.0" encoding="utf-8"?>
<!-- Generator: Adobe Illustrator 26.0.1, SVG Export Plug-In . SVG Version: 6.00 Build 0)  -->
<svg version="1.1" id="Laag_1" xmlns="http://www.w3.org/2000/svg" xmlns:xlink="http://www.w3.org/1999/xlink" x="0px" y="0px"
	 viewBox="0 0 121.1 111.3" style="enable-background:new 0 0 121.1 111.3;" xml:space="preserve">
<style type="text/css">
	.st0{fill:#FFFFFF;}
</style>
<g id="Laag_2_00000109740365925232639880000015672369271794679487_">
	<g id="Laag_1-2">
		<path class="st0" d="M109.8,79.4L109.8,79.4c0,1.4-1.1,2.5-2.4,2.6h-0.2c-0.1,0-0.1,0-0.2,0c-0.1,0-0.2,0-0.2,0
			c-0.1,0-0.1,0-0.2-0.1c-0.1,0-0.1,0-0.2-0.1c-0.1,0-0.1-0.1-0.2-0.1c-0.1-0.1-0.2-0.1-0.3-0.2c0,0,0,0,0,0
			c-0.1-0.1-0.2-0.2-0.3-0.3c-0.1-0.1-0.1-0.2-0.2-0.2c0,0-0.1-0.1-0.1-0.1c0-0.1-0.1-0.2-0.1-0.3c0,0,0,0,0,0
			c0-0.1-0.1-0.2-0.1-0.2c-0.1-0.1-0.1-0.3-0.1-0.4c0-0.1,0-0.1,0-0.2v-0.2c0-0.1,0-0.3,0-0.4c0-0.1,0-0.3,0.1-0.4
			c0-0.1,0-0.1,0-0.1c0-0.1,0.1-0.2,0.1-0.2c0-0.1,0.1-0.2,0.2-0.3c0.1-0.1,0.2-0.2,0.3-0.3c0,0,0.1-0.1,0.1-0.1
			c0.1-0.1,0.1-0.1,0.2-0.1c0,0,0.1-0.1,0.1-0.1c0,0,0,0,0.1,0c0.1-0.1,0.2-0.1,0.2-0.1c0,0,0.1,0,0.1,0c0,0,0.1,0,0.1,0
			c0,0,0.1,0,0.1,0c0.1,0,0.2,0,0.3,0c0.1,0,0.2,0,0.3,0c0.1,0,0.2,0,0.3,0c0.1,0,0.3,0,0.4,0c0.1,0,0.1,0,0.2,0
			c0.1,0,0.2,0.1,0.3,0.1c0,0,0.1,0,0.1,0.1c0.1,0,0.1,0.1,0.2,0.1c0,0,0,0,0.1,0c0,0,0.1,0.1,0.1,0.1c0.1,0,0.2,0.1,0.2,0.2
			c0,0,0.1,0.1,0.1,0.1c0.1,0.1,0.2,0.3,0.3,0.4c0,0.1,0.1,0.2,0.1,0.2c0,0.1,0.1,0.2,0.1,0.4c0,0.1,0,0.1,0,0.2
			C109.8,79.3,109.8,79.3,109.8,79.4z"/>
		<path class="st0" d="M83.7,15.8c-0.1,0.5-0.3,0.9-0.6,1.3c-1.9,2.7-4.5,4.7-6.9,6.9c-0.8,0.7-1.6,0.2-2.2-0.4
			c-0.8-0.7-1-1.9-0.3-2.8c0.4-0.5,0.9-0.9,1.3-1.4c1.7-1.7,3.4-3.4,5.1-5.1c0.5-0.6,1.5-0.8,2.2-0.4C82.9,14.5,83.7,14.9,83.7,15.8
			z"/>
		<path class="st0" d="M115.8,105.7c0.1-0.1,0.2-0.3,0.3-0.5C116.1,105.4,116,105.5,115.8,105.7z M113.8,106.2h-2.3
			c-1.1,0-1.5-0.2-1.6-1.2c0.1,0.9,0.5,1.2,1.6,1.2L113.8,106.2c1,0,1.7-0.1,2-0.5C115.5,106.1,114.8,106.2,113.8,106.2z
			 M106.4,86.7c-1.3,0.5-1.5,1.6-1.5,2.7v14.1c0,2.2-0.4,2.6-2.7,2.6c-2.9,0-5.7-0.2-8.6-0.2c-2.4,0-4.9,0.2-7.3,0.2
			c-1,0-1.6-0.1-2.1-0.5c0.4,0.4,1.1,0.5,2.1,0.5c2.4,0,4.9-0.1,7.3-0.1c2.9,0,5.7,0.1,8.6,0.1c2.3,0,2.7-0.4,2.7-2.6V89.5
			C104.9,88.3,105.1,87.2,106.4,86.7c0.4-0.2,0.8-0.2,1.2-0.2c0.7,0.1,1.3,0.4,1.7,0.9C108.7,86.5,107.4,86.2,106.4,86.7z
			 M66.5,53.1c4.8,7.3,9.6,14.6,14.5,21.8C76.1,67.6,71.3,60.4,66.5,53.1z M64.1,43.2c-0.1,0-0.2,0.1-0.2,0.2
			C63.9,43.3,64,43.3,64.1,43.2c0.1,0,0.3,0,0.4,0C64.3,43.1,64.2,43.1,64.1,43.2z M63.8,44.2c0-0.2,0-0.4,0-0.5
			C63.8,43.8,63.8,44,63.8,44.2c0,1.6,0.2,3.1,0.7,4.6C64,47.4,63.8,45.8,63.8,44.2z"/>
		<path class="st0" d="M62.9,2.1c0.3,3.7,0.2,7.4,0.2,11.1c0.1,1.1,0.1,2.2-0.1,3.3c-0.1,1-1,1.8-2,1.9c-1.1,0.1-2-0.6-2.3-1.7
			c-0.1-0.5-0.2-1-0.2-1.5c0-2,0-4,0-6s0-4.2,0-6.3c-0.1-1.1,0.4-2.1,1.4-2.6C61.6-0.4,62.8,0.3,62.9,2.1z"/>
		<path class="st0" d="M47.1,20c1.2,1.2,1.1,2.3-0.2,3.4c-0.5,0.6-1.5,0.7-2.1,0.2c0,0,0,0-0.1-0.1c-2.2-1.9-4.3-3.9-6.2-6.1
			c-0.6-0.6-0.8-1.5-0.4-2.2c0.4-0.8,1.1-1.3,1.9-1.4c0.5,0,1,0.3,1.4,0.7C43.4,16.3,45.3,18.1,47.1,20z"/>
		<path class="st0" d="M120.7,74.4c-0.9-4.2-3.5-7.2-6.9-9.7c-2.2-1.7-4.9-2.6-7.7-2.6c-1.6,0-1.9-0.4-1.4-2c0.2-0.5,0.3-1,0.5-1.5
			c1.2-3.1,1.4-6.5,0.6-9.8c-1.3-4.8-5.1-9.1-10.8-9.4c-4.7-0.2-9,2.2-11.3,6.3c-1,1.7-1.4,3.6-1.4,5.5c0.1,0.6-0.2,1.1-0.8,1.4
			c-0.6,0.2-1-0.1-1.4-0.5c-0.2-0.2-0.4-0.5-0.7-0.7c-4.9-4.9-9.7-9.7-14.6-14.5c-2.7-2.6-5.8-2.5-8.5,0.1
			C51.4,42.1,46,47,41.3,52.4c-0.4,0.4-0.9,1-1.5,0.7c-0.6-0.3-0.6-0.9-0.6-1.5c0.1-2.5-0.6-5-2.2-6.9c-0.2-0.2-0.3-0.5-0.5-0.7
			c-3.9-5-11.2-5.8-16.2-1.9c-4.1,3.1-6,8.3-5,13.3c0.3,1.6,0.8,3.3,1.4,4.8c0.6,1.6,0.3,2-1.4,2c-0.5,0-1,0-1.4,0
			c-4,0.5-7,2.6-9.6,5.4c-2.6,2.9-4,6.6-4.1,10.5c-0.3,8.4-0.1,16.9-0.1,25.3c0,1.9-0.1,3.7-0.1,5.7s0.5,2.4,2.6,2.1h37.6
			c1.2,0,2.2-1,2.4-2.2c0.1-0.6,0.2-1.3,0.2-1.9v-4.7c0-0.5-0.1-1.1-0.1-1.6c0-0.2,0-0.4,0-0.6c0-0.1,0-0.2,0-0.3
			c-0.1-0.6-0.5-1.1-1.2-1.3c-0.3-0.2-0.7-0.2-1.1-0.2c-0.2,0-0.4,0.1-0.5,0.1c-0.1,0-0.1,0.1-0.2,0.1c-0.2,0.1-0.4,0.2-0.5,0.4
			c0,0,0,0,0,0c0,0.1-0.1,0.1-0.1,0.2c-0.1,0.1-0.1,0.2-0.2,0.3c0,0.1-0.1,0.1-0.1,0.2c0,0.1-0.1,0.2-0.1,0.2c0,0.1,0,0.1,0,0.2
			s0,0.1,0,0.2c0,0.1,0,0.2,0,0.3c0,1.5,0,3.1-0.2,4.6c-0.1,0.8-0.5,1.1-1.3,1.1c-0.4,0-1-0.1-1.4-0.1c-2.6-0.3-5.2-0.4-7.8-0.3
			c-2.9,0.2-5.8,0.2-8.7,0.2c-1.4,0-2-0.3-2.3-1.2c0,0,0,0,0,0c0-0.1-0.1-0.3-0.1-0.5c0-0.2,0-0.4,0-0.6c0-5.5,0.1-10.9,0-16.4
			c0-0.4,0-0.7,0-1.1c0-1.4,0.1-2.8,0-4.2c0-0.3,0-0.5,0-0.8c0-0.6-0.1-1.3-0.2-1.9v-0.1c0-0.1,0-0.2,0-0.3c-0.2-1-1.1-1.7-2.2-1.7
			c-1.1,0-2.1,0.8-2.3,1.9c-0.1,0.3-0.1,0.5-0.2,0.8c0,0,0,0,0,0c-0.1,0.3-0.1,0.5-0.1,0.8c-0.1,0.6-0.1,1.2-0.1,1.8v18.8
			c0,1.8,0.1,2.8-0.2,3.4c0,0,0,0.1-0.1,0.1c0,0,0,0,0,0c0,0,0,0.1-0.1,0.1l-0.1,0.1c0,0,0,0,0,0c-0.1,0.1-0.1,0.1-0.2,0.2
			c-0.2,0.1-0.5,0.3-0.9,0.4c-0.2,0.1-0.4,0.1-0.6,0.1c-0.1,0-0.1,0-0.2,0c-0.1,0-0.1,0-0.2,0.1c-0.4,0.1-1,0.2-1.6,0.3
			c-0.3,0.1-0.5,0.1-0.8,0.1c-0.4,0-0.7-0.1-0.9-0.3c0,0-0.1-0.1-0.1-0.1c-0.1-0.1-0.1-0.1-0.1-0.2c0-0.1-0.1-0.1-0.1-0.2
			c-0.1-0.2-0.1-0.4-0.1-0.6c0-0.1,0-0.3,0-0.4c0-9.2-0.1-18.4,0-27.5c0-0.5,0.1-0.9,0.1-1.4c0-0.3,0.1-0.5,0.2-0.8
			c0.3-1.1,0.7-2.1,1.2-3c0.2-0.2,0.3-0.5,0.5-0.7c0.1-0.1,0.2-0.2,0.3-0.4c0.2-0.2,0.4-0.5,0.6-0.7c0.2-0.2,0.3-0.3,0.5-0.5
			c0.1-0.1,0.2-0.2,0.4-0.3c0,0,0,0,0.1,0c0.1-0.1,0.2-0.2,0.3-0.3c0.2-0.2,0.4-0.3,0.7-0.5c0.1-0.1,0.2-0.1,0.3-0.2
			c0.3-0.2,0.5-0.3,0.8-0.4c0.2-0.1,0.4-0.2,0.7-0.3c0.1,0,0.2-0.1,0.2-0.1c0.1,0,0.1,0,0.2-0.1c0.3-0.1,0.5-0.2,0.8-0.2
			c0,0,0,0,0,0c0.3-0.1,0.6-0.1,0.8-0.2c3.4-0.6,6.9-0.8,10.3-0.5c0.4,0,0.7,0.1,1.1,0.1c0.4,0.1,0.7,0.1,1.1,0.1
			c4.4,0.4,8.8-1.4,11.8-4.8c3.5-3.9,7.2-7.6,11-11.3l7.1-7c0.5-0.5,1.1-0.8,1.7-0.5c0.4,0.2,0.5,0.6,0.4,1c0,0.2,0,0.3-0.1,0.5
			c-0.7,4-2.2,7.8-4.4,11.1c-4.6,6.9-9.2,13.8-14,20.6c-1.3,1.8-1.8,4-1.4,6.2c0,0.1,0,0.2,0.1,0.3c0.1,0.3,0.3,0.6,0.5,0.8
			c0.4,0.4,1,0.6,1.5,0.5c1.2,0,2-0.7,2-1.8c0-0.4,0-0.8,0.1-1.1c0,0,0-0.1,0-0.1v0c0.2-1,0.7-2,1.3-2.9c5.2-8,11-15.8,15.9-24
			c0.7-1.2,1.2-1.2,1.9,0c1,1.6,2,3.4,3,5C68.6,65.6,73,71.4,77,77.6c0.9,1.4,1.4,3,1.4,4.6v6.2c0,5.2,0.1,10.4,0,15.6
			c0,2.4,0.1,4.6,1.4,6.7c0.2,0.5,0.8,0.7,1.3,0.6h36.7c1.4,0,2.7-0.9,3-2.3c0.2-0.7,0.3-1.5,0.3-2.2V77.6
			C121.1,76.5,121,75.5,120.7,74.4z M21.2,58.1c-0.1-0.2-0.2-0.4-0.3-0.7c-0.1-0.2-0.2-0.4-0.2-0.7c-0.1-0.3-0.2-0.6-0.2-1
			c-0.1-0.3-0.1-0.6-0.2-0.9c0-0.3-0.1-0.5-0.1-0.8c0-0.1,0-0.2,0-0.3c0-0.3,0-0.5,0-0.8c0-1,0.1-2,0.3-3c0.8-3.7,4.2-6.1,7.9-5.5
			c2,0.3,3.8,1.4,4.9,3c0.2,0.2,0.3,0.5,0.4,0.7c0.1,0.1,0.1,0.3,0.2,0.4c0.2,0.3,0.3,0.7,0.4,1c0,0.2,0.1,0.4,0.1,0.5
			c0.1,0.5,0.1,0.9,0.1,1.4v1.2c0,0.6,0,1.3,0,1.9c0,0.2,0,0.4-0.1,0.6c0,0.2-0.1,0.4-0.1,0.6c-0.1,0.4-0.2,0.8-0.3,1.2
			c0,0.2-0.1,0.4-0.2,0.6c-0.1,0.2-0.1,0.4-0.2,0.6c-0.1,0.1-0.1,0.3-0.2,0.4C33.2,58.7,33,58.8,33,59c0,0.1-0.1,0.2-0.2,0.2
			c0,0,0,0,0,0c-0.1,0.2-0.2,0.3-0.4,0.5c-0.1,0.1-0.2,0.2-0.3,0.3c-0.8,0.8-1.8,1.4-3,1.7C25.8,62.5,22.6,60.9,21.2,58.1z
			 M87.2,50.3c0-0.2,0.1-0.4,0.1-0.6c0-0.1,0-0.1,0-0.2c0-0.1,0.1-0.2,0.1-0.3c0-0.1,0-0.1,0.1-0.2c0.1-0.2,0.1-0.4,0.2-0.5
			c0.1-0.2,0.2-0.4,0.3-0.5c0.1-0.2,0.2-0.4,0.3-0.5s0.2-0.3,0.4-0.5c0.1-0.2,0.3-0.3,0.4-0.5c0.2-0.2,0.5-0.4,0.7-0.6
			c0,0,0,0,0.1,0c0.1-0.1,0.2-0.2,0.4-0.2h0c0,0,0.1-0.1,0.1-0.1c0.1,0,0.1-0.1,0.2-0.1c0.1,0,0.1-0.1,0.2-0.1c0,0,0.1,0,0.1,0
			c0.1,0,0.1-0.1,0.2-0.1c0,0,0.1,0,0.1-0.1c0.2-0.1,0.3-0.1,0.5-0.2c0.4-0.1,0.8-0.3,1.2-0.3c0.5-0.1,1-0.1,1.6-0.1
			c0,0,0.1,0,0.1,0c0,0,0.1,0,0.1,0c0,0,0,0,0,0c0,0,0,0,0.1,0c0.1,0,0.2,0,0.2,0c0.1,0,0.2,0,0.3,0c0.2,0,0.4,0.1,0.6,0.1
			c0.2,0,0.4,0.1,0.6,0.2c0.2,0.1,0.4,0.1,0.6,0.2c0,0,0,0,0,0c0.6,0.3,1.1,0.6,1.5,1c0.2,0.1,0.3,0.3,0.5,0.4
			c0.2,0.1,0.3,0.3,0.4,0.5c0.1,0.2,0.3,0.3,0.4,0.5c0.5,0.7,0.8,1.4,1.1,2.2c0.1,0.2,0.1,0.4,0.1,0.6c0.1,0.5,0.1,1,0.1,1.5v1.4
			c0,0.3,0,0.7,0,1c0,0.1,0,0.2,0,0.3c0,0.3-0.1,0.7-0.1,1c0,0.2-0.1,0.4-0.1,0.6c0,0.1-0.1,0.3-0.1,0.4c0,0,0,0,0,0
			c0,0,0,0.1,0,0.1c0,0,0,0,0,0c0,0.2-0.1,0.3-0.2,0.5c-0.1,0.2-0.1,0.4-0.2,0.6c-0.1,0.2-0.2,0.4-0.2,0.6v0
			c-0.1,0.2-0.3,0.5-0.4,0.7c-0.1,0.1-0.2,0.2-0.2,0.3c-0.1,0.1-0.2,0.2-0.3,0.3c-0.2,0.2-0.3,0.4-0.5,0.5c0,0-0.1,0.1-0.1,0.1
			c-0.1,0.1-0.2,0.2-0.4,0.3c0,0,0,0,0,0c-0.6,0.4-1.3,0.8-2,1c0,0,0,0,0,0c-0.1,0-0.2,0-0.2,0.1c-0.3,0.1-0.5,0.1-0.8,0.2h0
			c-0.1,0-0.1,0-0.2,0c-0.1,0-0.2,0-0.2,0c-0.2,0-0.3,0-0.5,0c-0.2,0-0.4,0-0.6,0h0c0,0,0,0,0,0c-0.1,0-0.2,0-0.3,0
			c-0.1,0-0.2,0-0.2,0c-0.2,0-0.4-0.1-0.6-0.1c-0.1,0-0.2,0-0.3-0.1c-0.1,0-0.2,0-0.3-0.1c0,0-0.1,0-0.1,0c-0.2-0.1-0.3-0.1-0.4-0.2
			l0,0c0,0,0,0,0,0c-0.1-0.1-0.2-0.1-0.3-0.2c-0.2-0.1-0.4-0.2-0.6-0.4c-0.2-0.1-0.4-0.3-0.6-0.4c-0.2-0.2-0.4-0.3-0.5-0.5
			c-0.1-0.1-0.2-0.2-0.2-0.3c0,0,0,0,0,0c0,0,0,0,0-0.1c-0.1-0.1-0.2-0.2-0.2-0.3c0-0.1-0.1-0.2-0.2-0.2c-0.1-0.2-0.2-0.3-0.3-0.5
			c0,0,0,0,0-0.1c-0.1-0.2-0.2-0.3-0.2-0.5c0,0,0,0,0,0c0-0.1-0.1-0.2-0.1-0.2c0-0.1-0.1-0.3-0.1-0.4c0-0.1-0.1-0.2-0.1-0.3
			c0,0,0,0,0-0.1c0-0.1,0-0.1,0-0.2c0,0,0,0,0-0.1c0-0.2-0.1-0.4-0.1-0.6C87,54,86.9,52.1,87.2,50.3z M116.3,103.6
			c0,0.5,0,1-0.1,1.3c0,0.1,0,0.2-0.1,0.2c-0.1,0.2-0.2,0.4-0.3,0.5c-0.4,0.4-1,0.5-2,0.5h-2.3c-1.1,0-1.5-0.2-1.6-1.2v-0.1
			c0-0.1,0-0.1,0-0.2c0-0.1,0-0.1,0-0.2V92.9c0-0.4,0-0.8,0-1.2v-0.1c0-0.6,0-1.1,0-1.7c0-0.2,0-0.4,0-0.5v-0.1c0-0.1,0-0.1,0-0.2
			c0-0.2,0-0.5,0-0.7c0-0.2-0.1-0.4-0.2-0.5c-0.1-0.2-0.2-0.3-0.3-0.4c-0.7-0.9-1.9-1.2-3-0.7c-1.3,0.5-1.5,1.6-1.5,2.7v14.1
			c0,2.2-0.4,2.6-2.7,2.6c-2.9,0-5.7-0.2-8.6-0.2c-2.4,0-4.9,0.2-7.3,0.2c-1,0-1.6-0.1-2.1-0.5c-0.1,0-0.1-0.1-0.2-0.2
			c-0.1-0.1-0.1-0.1-0.2-0.2c0-0.1-0.1-0.2-0.2-0.3c-0.1-0.2-0.2-0.5-0.2-0.8c0-0.2,0-0.5,0-0.7c0-6.7-0.1-13.3,0.1-20
			c0.1-1.1,0-2.1-0.2-3.2c-0.2-0.9-0.4-1.8-0.8-2.6c-0.1-0.3-0.3-0.6-0.4-0.9c-0.1-0.2-0.2-0.4-0.3-0.6c-0.1-0.1-0.2-0.3-0.2-0.4
			c-0.2-0.3-0.4-0.6-0.6-0.9c0,0-0.1-0.1-0.1-0.2c-4.9-7.2-9.7-14.5-14.5-21.8c-0.5-0.8-1-1.7-1.4-2.5c-0.2-0.6-0.5-1.1-0.6-1.7
			c-0.5-1.5-0.7-3.1-0.7-4.6c0-0.2,0-0.4,0-0.5c0,0,0-0.1,0-0.1c0,0,0-0.1,0-0.1c0,0,0,0,0-0.1c0-0.1,0.1-0.1,0.2-0.2
			c0.1-0.1,0.2-0.1,0.3,0c0,0,0,0,0.1,0c0.2,0.1,0.4,0.3,0.6,0.5c7,7,13.9,14,20.9,21c1.4,1.5,3.3,2.3,5.3,2.2h13.9
			c3.9,0,7,1.6,8.9,4.3c0.3,0.4,0.5,0.8,0.7,1.2c0,0,0,0,0,0c0.1,0.1,0.2,0.3,0.2,0.5c0.1,0.2,0.2,0.3,0.2,0.5
			c0.1,0.3,0.2,0.7,0.3,1v0c0.3,1,0.5,2.2,0.5,3.4c0.1,4.7,0,9.3,0.1,13.2V103.6z"/>
		<path class="st0" d="M42.7,91.9V92c-0.1,1.2-1,2.1-2.2,2.1c-1.2,0-2.1-1-2.1-2.1c0-0.1,0-0.1,0-0.2c0.1-1.1,0.9-1.9,2-2.1
			c0.2,0,0.3,0,0.4,0.1c0.4,0.1,0.8,0.3,1.1,0.6C42.3,90.7,42.6,91.2,42.7,91.9C42.7,91.8,42.7,91.8,42.7,91.9z"/>
		<path class="st0" d="M11.3,104.8c-0.3,0.9-1.3,1-3.9,1.6c-1.4,0.3-2.1-0.1-2.2-1.4c0.1,1.2,0.8,1.6,2.2,1.3
			C10,105.8,11,105.7,11.3,104.8z"/>
		<path class="st0" d="M16.4,78.9c-0.2-1-1.1-1.7-2.1-1.7h0c-1.1,0-2.1,0.8-2.3,1.9c-0.1,0.5-0.2,1.1-0.3,1.6
			c0.1-0.6,0.2-1.1,0.3-1.6c0.2-1.1,1.2-1.9,2.3-1.9C15.3,77.2,16.2,77.9,16.4,78.9z"/>
		<path class="st0" d="M16.5,79.3c0-0.1,0-0.3,0-0.4C16.5,79.1,16.5,79.2,16.5,79.3L16.5,79.3z"/>
		<path class="st0" d="M16.5,79.4c0.1,0.6,0.2,1.3,0.2,1.9C16.6,80.6,16.6,80,16.5,79.4z"/>
		<path class="st0" d="M7.5,70.7c1.5-2,3.8-3.4,6.4-3.8c3.4-0.6,6.9-0.8,10.4-0.5c-3.4-0.3-6.9-0.1-10.3,0.5
			C11.4,67.4,9.1,68.8,7.5,70.7z"/>
		<path class="st0" d="M38.3,105.3L38.3,105.3c-0.1,0.8-0.5,1.2-1.3,1.1c-0.5,0-1,0-1.4-0.1c-2.6-0.3-5.2-0.4-7.8-0.3
			c-2.9,0.2-5.8,0.1-8.7,0.2c-1.4,0-2.1-0.3-2.3-1.3c0.3,0.9,0.9,1.2,2.3,1.2c2.9,0,5.8,0,8.7-0.2c2.6-0.1,5.2,0,7.8,0.3
			c0.5,0,1,0.1,1.4,0.1C37.8,106.5,38.2,106.1,38.3,105.3z"/>
		<path class="st0" d="M42.5,99.9c-0.1-0.6-0.6-1.1-1.2-1.2c-1-0.5-2.2-0.1-2.7,0.9c-0.1,0.1-0.1,0.3-0.2,0.4
			c0.2-0.8,0.8-1.5,1.7-1.6c0.4,0,0.8,0,1.1,0.2C42,98.8,42.4,99.3,42.5,99.9z"/>
		<path class="st0" d="M42.6,82.4c0-0.4,0-0.8,0.1-1.2v0.2C42.6,81.7,42.6,82,42.6,82.4c0,1.2-0.7,1.8-1.9,1.8
			c-0.6,0.1-1.1-0.1-1.5-0.5c0.4,0.3,1,0.5,1.5,0.5C41.8,84.2,42.6,83.5,42.6,82.4z"/>
		<path class="st0" d="M42,90.4c0.4,0.4,0.7,0.8,0.8,1.4v0.1C42.6,91.3,42.3,90.8,42,90.4z"/>
		<path class="st0" d="M58.4,44.1c0-0.4,0-0.8-0.4-1c-0.6-0.3-1.2,0-1.7,0.5l-7.1,7c-3.8,3.7-7.5,7.4-11,11.3
			c-2.9,3.4-7.3,5.2-11.8,4.8c4.4,0.3,8.8-1.5,11.7-4.9c3.5-3.9,7.3-7.6,11-11.3l7.1-7c0.5-0.5,1-0.8,1.7-0.5
			C58.5,43.3,58.5,43.7,58.4,44.1z"/>
		<path class="st0" d="M33.2,47.5c-1.1-1.6-2.8-2.7-4.9-3c-3.7-0.6-7.2,1.9-7.9,5.5v0c0.8-3.7,4.2-6.1,7.9-5.5
			C30.4,44.7,32.2,45.8,33.2,47.5z"/>
		<path class="st0" d="M33.2,47.5c0.2,0.2,0.3,0.5,0.4,0.7C33.5,47.9,33.4,47.7,33.2,47.5z"/>
		<path class="st0" d="M33.9,48.6c0.2,0.3,0.3,0.7,0.4,1C34.1,49.3,34,48.9,33.9,48.6z"/>
	</g>
</g>
</svg>
