<svg xmlns="http://www.w3.org/2000/svg" viewBox="0 0 121.14 111.29"><defs><style>.cls-1{fill:#25b6e9;}.cls-2{fill:#fff;}.cls-3{fill:#23b6e9;}.cls-4{fill:#22b6e9;}.cls-5{fill:#24b6e9;}</style></defs><g id="Laag_2" data-name="Laag 2"><g id="Laag_1-2" data-name="Laag 1"><path class="cls-1" d="M107.37,77.18a2.26,2.26,0,0,1,2.48,2.29A2.6,2.6,0,0,1,107.42,82a2.46,2.46,0,0,1-2.51-2.48A2.19,2.19,0,0,1,107.37,77.18Z"/><path class="cls-2" d="M101.32,53.09a10.17,10.17,0,0,1-1.07,5.13,6.9,6.9,0,0,1-12.92-2.36,17.22,17.22,0,0,1-.13-5.59,7.11,7.11,0,0,1,14.12,1.42Z"/><path class="cls-3" d="M83.68,15.84a2.84,2.84,0,0,1-.57,1.33c-1.9,2.7-4.47,4.72-6.92,6.86-.82.72-1.59.19-2.23-.35a2.09,2.09,0,0,1-.31-2.82A15.5,15.5,0,0,1,75,19.48c1.69-1.69,3.38-3.37,5.06-5.07a1.66,1.66,0,0,1,2.16-.35C82.92,14.46,83.67,14.87,83.68,15.84Z"/><path class="cls-2" d="M65.07,43.73q10.44,10.47,20.87,21a7,7,0,0,0,5.35,2.2c4.63,0,9.26,0,13.89,0,6.55,0,10.84,4.48,11,11,.13,4.67,0,9.34.11,13.15,0,4.77,0,8.68,0,12.59,0,2.08-.47,2.55-2.51,2.53-.76,0-1.52,0-2.28,0-1.3,0-1.63-.33-1.64-1.64,0-3.87,0-7.75,0-11.62,0-1.28.05-2.56,0-3.83a2.42,2.42,0,0,0-3.47-2.35c-1.33.46-1.48,1.58-1.49,2.72,0,4.71,0,9.42,0,14.13,0,2.25-.38,2.64-2.65,2.61-2.87,0-5.74-.15-8.61-.15-2.43,0-4.86.12-7.29.15-2.09,0-2.79-.65-2.79-2.68,0-6.67-.14-13.34.09-20A13.36,13.36,0,0,0,81.13,75q-7.42-10.86-14.6-21.91a15.45,15.45,0,0,1-2.71-8.91c0-.34-.15-.79.25-1S64.79,43.45,65.07,43.73Zm44.78,35.74a2.26,2.26,0,0,0-2.48-2.29,2.19,2.19,0,0,0-2.46,2.29A2.46,2.46,0,0,0,107.42,82,2.6,2.6,0,0,0,109.85,79.47Z"/><path class="cls-3" d="M62.94,2.08c.32,3.7.19,7.41.16,11.11A15,15,0,0,1,63,16.53a2.17,2.17,0,0,1-2,1.86,2.26,2.26,0,0,1-2.32-1.69,4.66,4.66,0,0,1-.19-1.53c0-2,0-4,0-6s0-4.23,0-6.34A2.48,2.48,0,0,1,59.91.24C61.56-.42,62.79.31,62.94,2.08Z"/><path class="cls-4" d="M47.08,20c1.16,1.2,1.06,2.3-.16,3.38a1.47,1.47,0,0,1-2.14.1,54.65,54.65,0,0,1-6.23-6.13,1.8,1.8,0,0,1-.36-2.2,2.65,2.65,0,0,1,1.93-1.43,2.06,2.06,0,0,1,1.4.66C43.37,16.29,45.26,18.14,47.08,20Z"/><path class="cls-4" d="M111.52,106.17c.76,0,1.52,0,2.28,0,2,0,2.51-.45,2.51-2.53,0-3.91,0-7.82,0-12.59-.1-3.81,0-8.48-.11-13.15-.19-6.53-4.48-11-11-11-4.63,0-9.26,0-13.89,0a7,7,0,0,1-5.35-2.2q-10.41-10.51-20.87-21c-.28-.28-.55-.69-1-.49s-.24.63-.25,1a15.45,15.45,0,0,0,2.71,8.91q7.18,11,14.6,21.91a13.36,13.36,0,0,1,2.49,8.48c-.23,6.66-.09,13.33-.09,20,0,2,.7,2.7,2.79,2.68,2.43,0,4.86-.16,7.29-.15,2.87,0,5.74.12,8.61.15,2.27,0,2.65-.36,2.65-2.61,0-4.71,0-9.42,0-14.13,0-1.14.16-2.26,1.49-2.72a2.42,2.42,0,0,1,3.47,2.35c.09,1.27,0,2.55,0,3.83,0,3.87,0,7.75,0,11.62C109.89,105.84,110.22,106.15,111.52,106.17Zm-68.8-25a5.61,5.61,0,0,0-.14,1.24c0,1.14-.73,1.76-1.95,1.8a1.91,1.91,0,0,1-2.15-1.63,8.61,8.61,0,0,1,1.42-6.24c4.75-6.81,9.36-13.71,14-20.6a30.54,30.54,0,0,0,4.45-11.14c.11-.53.25-1.16-.36-1.51s-1.23,0-1.7.46l-7.07,7c-3.76,3.69-7.5,7.39-11,11.3a14,14,0,0,1-12.78,4.72,38.29,38.29,0,0,0-11.45.35A10.55,10.55,0,0,0,5.21,77c-.07,9.18,0,18.36,0,27.55,0,1.57.68,2.13,2.2,1.79,4.47-1,4.08-.56,4.08-5,0-6.27,0-12.54,0-18.8a12,12,0,0,1,.44-3.43,2.28,2.28,0,0,1,2.32-1.86,2.12,2.12,0,0,1,2.22,2.07c.45,2.65.17,5.33.2,8,.06,5.47,0,10.94,0,16.41,0,1.86.55,2.45,2.42,2.43,2.91,0,5.82,0,8.73-.16a54.4,54.4,0,0,1,7.76.32c.48,0,1,.06,1.43.09.8.05,1.15-.35,1.28-1.1a36.32,36.32,0,0,0,.19-4.66,2,2,0,0,1,2.9-2,1.63,1.63,0,0,1,1.18,1.5c.07.74.12,1.48.16,2.22v4.68c0,.64-.09,1.29-.17,1.93a2.43,2.43,0,0,1-2.38,2.17H3.63c-.36,0-.72,0-1.07,0C.55,111.44,0,111.06,0,109s.11-3.83.11-5.74C.14,94.86-.1,86.42.24,78A15.91,15.91,0,0,1,4.3,67.55c2.62-2.77,5.68-4.9,9.63-5.36a13.58,13.58,0,0,1,1.43,0c1.68,0,2-.43,1.37-2a24.53,24.53,0,0,1-1.37-4.82,13.52,13.52,0,0,1,5-13.33A11.52,11.52,0,0,1,37.05,44.6a10.55,10.55,0,0,1,2.15,6.94c0,.62,0,1.23.64,1.54s1.12-.24,1.49-.67C46.05,47,51.38,42.14,56.46,37.07c2.63-2.63,5.8-2.73,8.48-.11,4.92,4.8,9.74,9.68,14.6,14.53.23.23.45.46.68.68.39.35.78.71,1.37.47a1.25,1.25,0,0,0,.76-1.36,10.47,10.47,0,0,1,1.38-5.5A12.14,12.14,0,0,1,95,39.5c5.72.34,9.49,4.62,10.78,9.4a16.63,16.63,0,0,1-.55,9.77c-.16.49-.35,1-.5,1.47-.48,1.56-.19,2,1.41,2a12.46,12.46,0,0,1,7.7,2.55c3.37,2.47,6,5.53,6.9,9.72a15,15,0,0,1,.33,3.21c0,9.7,0,19.4,0,29.1a7.42,7.42,0,0,1-.27,2.25,3,3,0,0,1-3,2.26H81.09a1.18,1.18,0,0,1-1.29-.62c-1.3-2.09-1.41-4.3-1.37-6.66.11-5.18,0-10.38,0-15.57,0-2.07,0-4.15,0-6.22a7.92,7.92,0,0,0-1.39-4.61c-4-6.15-8.41-12-12.3-18.27-1-1.65-2-3.36-3-5-.71-1.16-1.19-1.16-1.87,0C55,62.49,49.25,70.23,44,78.28A8.19,8.19,0,0,0,42.72,81.14Zm57.53-22.92a10.17,10.17,0,0,0,1.07-5.13v-1.4A7.11,7.11,0,0,0,87.2,50.27a17.22,17.22,0,0,0,.13,5.59,6.9,6.9,0,0,0,12.92,2.36Zm-66.77-.13a11,11,0,0,0,1-5.34c0-.4,0-.8,0-1.2a7.08,7.08,0,0,0-6.1-7.14,7,7,0,0,0-7.92,5.52,14.81,14.81,0,0,0,.2,6.75,6.89,6.89,0,0,0,12.82,1.41Z"/><path class="cls-5" d="M42.72,91.86V92a2.25,2.25,0,0,1-2.19,2.1A2.12,2.12,0,0,1,38.44,92a2.28,2.28,0,0,1,2-2.27A2.47,2.47,0,0,1,42.72,91.86Z"/><path class="cls-2" d="M56.27,43.52c.47-.47,1-.84,1.7-.46s.47,1,.36,1.51a30.54,30.54,0,0,1-4.45,11.14c-4.62,6.89-9.23,13.79-14,20.6a8.61,8.61,0,0,0-1.42,6.24,1.91,1.91,0,0,0,2.15,1.63c1.22,0,1.95-.66,1.95-1.8a5.61,5.61,0,0,1,.14-1.24V91.86a2.47,2.47,0,0,0-2.27-2.14,2.28,2.28,0,0,0-2,2.27,2.12,2.12,0,0,0,2.09,2.15A2.25,2.25,0,0,0,42.72,92v10.41c0-.74-.09-1.48-.16-2.22a1.63,1.63,0,0,0-1.18-1.5,2,2,0,0,0-2.9,2,36.32,36.32,0,0,1-.19,4.66c-.13.75-.48,1.15-1.28,1.1-.47,0-1,0-1.43-.09a54.4,54.4,0,0,0-7.76-.32c-2.91.17-5.82.13-8.73.16-1.87,0-2.42-.57-2.42-2.43,0-5.47.07-10.94,0-16.41,0-2.67.25-5.35-.2-8a2.12,2.12,0,0,0-2.22-2.07,2.28,2.28,0,0,0-2.32,1.86,12,12,0,0,0-.44,3.43c0,6.26,0,12.53,0,18.8,0,4.4.39,4-4.08,5-1.52.34-2.2-.22-2.2-1.79,0-9.19-.06-18.37,0-27.55a10.55,10.55,0,0,1,8.73-10.13,38.29,38.29,0,0,1,11.45-.35,14,14,0,0,0,12.78-4.72c3.53-3.91,7.27-7.61,11-11.3Z"/><path class="cls-4" d="M42.71,102.45a40.59,40.59,0,0,1,0,4.68Z"/><path class="cls-2" d="M34.48,51.55c0,.4,0,.8,0,1.2a11,11,0,0,1-1,5.34,6.89,6.89,0,0,1-12.82-1.41,14.81,14.81,0,0,1-.2-6.75,7,7,0,0,1,7.92-5.52A7.08,7.08,0,0,1,34.48,51.55Z"/></g></g></svg>