<svg xmlns="http://www.w3.org/2000/svg" xmlns:xlink="http://www.w3.org/1999/xlink" width="254" height="176.123" viewBox="0 0 254 176.123">
  <defs>
    <linearGradient id="linear-gradient" x1="0.5" x2="0.5" y2="1" gradientUnits="objectBoundingBox">
      <stop offset="0" stop-color="#22b6e9"/>
      <stop offset="1" stop-color="#5422e9"/>
    </linearGradient>
    <linearGradient id="linear-gradient-2" x1="0.19" y1="0.76" x2="0.899" y2="2.339" xlink:href="#linear-gradient"/>
  </defs>
  <g id="image-not-found" transform="translate(-677 -532)">
    <g id="Laag_2" data-name="Laag 2" transform="translate(677 532)">
      <g id="Laag_1" data-name="Laag 1" transform="translate(0 0)">
        <path id="Path_3" data-name="Path 3" d="M89.77,17.026a4.5,4.5,0,0,1-.9,2.106C85.859,23.407,81.79,26.6,77.91,29.993c-1.3,1.14-2.517.3-3.531-.554a3.309,3.309,0,0,1-.491-4.465,24.54,24.54,0,0,1,2.137-2.185c2.676-2.676,5.352-5.336,8.012-8.027a2.628,2.628,0,0,1,3.42-.554C88.566,14.841,89.754,15.49,89.77,17.026Z" transform="translate(41.598 8.054)" fill="#23b6e9"/>
        <path id="Path_5" data-name="Path 5" d="M65.549,3.293c.507,5.858.3,11.732.253,17.591a23.75,23.75,0,0,1-.158,5.288,3.436,3.436,0,0,1-3.167,2.945A3.578,3.578,0,0,1,58.8,26.442a7.379,7.379,0,0,1-.3-2.422q0-4.75,0-9.5V4.481A3.927,3.927,0,0,1,60.752.38C63.364-.665,65.312.491,65.549,3.293Z" transform="translate(33.251 0)" fill="#23b6e9"/>
        <path id="Path_6" data-name="Path 6" d="M52.4,23.663c1.837,1.9,1.678,3.642-.253,5.352a2.327,2.327,0,0,1-3.388.158,86.528,86.528,0,0,1-9.864-9.706,2.85,2.85,0,0,1-.57-3.483,4.2,4.2,0,0,1,3.056-2.264,3.262,3.262,0,0,1,2.217,1.045C46.523,17.789,49.516,20.718,52.4,23.663Z" transform="translate(21.565 8.003)" fill="#22b6e9"/>
        <path id="Path_7" data-name="Path 7" d="M84.584,67.812a48.6,48.6,0,0,0,6.983-17.638c.173-.839.392-1.837-.565-2.391s-1.93,0-2.668.728L77.24,59.594c-5.9,5.842-11.77,11.7-17.262,17.892a21.864,21.864,0,0,1-20.055,7.473,59.562,59.562,0,0,0-17.968.554,16.657,16.657,0,0,0-13.778,15.96c-.11,14.535,0,29.07,0,43.621,0,2.486,1.067,3.373,3.452,2.834,7.015-1.583,6.4-.887,6.4-7.917V110.245a19.16,19.16,0,0,1,.69-5.431,3.585,3.585,0,0,1,3.641-2.945,3.31,3.31,0,0,1,2.427.9,3.37,3.37,0,0,1,1.057,2.38c.706,4.2.267,8.439.314,12.667.094,8.661,0,17.322,0,25.982,0,2.945.863,3.879,3.8,3.848,4.567,0,9.133,0,13.7-.253a84.613,84.613,0,0,1,12.178.507c.753,0,1.569.1,2.244.143,1.255.079,1.8-.554,2.009-1.742a58.022,58.022,0,0,0,.3-7.378,3.178,3.178,0,0,1,1.338-2.955,3.115,3.115,0,0,1,3.213-.211,2.577,2.577,0,0,1,1.852,2.375c.11,1.172.188,2.343.251,3.515v7.41a25.1,25.1,0,0,1-.267,3.056,3.827,3.827,0,0,1-3.735,3.436H4.017C.863,156,0,155.4,0,152.14s.173-6.064.173-9.088c.047-13.3-.33-26.663.2-40A25.317,25.317,0,0,1,6.748,86.511c4.112-4.386,8.914-7.758,15.112-8.487a21.128,21.128,0,0,1,2.244,0c2.636,0,3.139-.681,2.15-3.167a39.107,39.107,0,0,1-2.15-7.632A21.506,21.506,0,0,1,31.951,46.12a17.978,17.978,0,0,1,26.191,4.053,16.807,16.807,0,0,1,3.374,10.988c0,.982,0,1.947,1,2.438s1.758-.38,2.338-1.061C72.266,53.973,80.63,46.278,88.6,38.251c4.127-4.164,9.1-4.323,13.308-.174C109.63,45.677,90.243,71.957,84.584,67.812ZM52.54,71.58a17.552,17.552,0,0,0,1.569-8.455v-1.9a11.18,11.18,0,0,0-9.573-11.3,10.993,10.993,0,0,0-12.429,8.74,23.653,23.653,0,0,0,.314,10.687A10.781,10.781,0,0,0,52.54,71.58Z" transform="translate(0 20.443)" fill="url(#linear-gradient)"/>
        <path id="Path_8" data-name="Path 8" d="M45.217,93.1v.222a3.563,3.563,0,0,1-3.467,3.325,3.357,3.357,0,0,1-3.309-3.325,3.61,3.61,0,0,1,3.167-3.594,3.911,3.911,0,0,1,3.61,3.373Z" transform="translate(21.864 52.342)" fill="#24b6e9"/>
        <path id="Path_9" data-name="Path 9" d="M86.071,43.88c.744-.744,1.583-1.33,2.692-.728s.744,1.583.57,2.391a48.355,48.355,0,0,1-7.046,17.638C74.971,74.09,67.672,85.015,60.12,95.8a13.632,13.632,0,0,0-2.248,9.88,3.024,3.024,0,0,0,3.4,2.581c1.932,0,3.087-1.045,3.087-2.85a8.883,8.883,0,0,1,.222-1.963v16.973a3.911,3.911,0,0,0-3.594-3.388,3.61,3.61,0,0,0-3.167,3.594,3.357,3.357,0,0,0,3.309,3.4,3.563,3.563,0,0,0,3.483-3.388v16.483c0-1.172-.142-2.343-.253-3.515a2.581,2.581,0,0,0-1.868-2.375A3.167,3.167,0,0,0,57.9,134.4a57.507,57.507,0,0,1-.3,7.378c-.206,1.188-.76,1.821-2.027,1.742a11.76,11.76,0,0,1-2.264-.142,86.14,86.14,0,0,0-12.287-.507c-4.608.269-9.215.206-13.823.253-2.961,0-3.832-.9-3.832-3.848,0-8.661.111-17.322,0-25.982,0-4.227.4-8.471-.317-12.667a3.357,3.357,0,0,0-3.515-3.278,3.61,3.61,0,0,0-3.673,2.945,19,19,0,0,0-.7,5.431q0,14.868,0,29.767c0,6.967.618,6.333-6.46,7.917-2.407.538-3.483-.348-3.483-2.834,0-14.551-.1-29.086,0-43.621A16.7,16.7,0,0,1,19.048,80.914a60.625,60.625,0,0,1,18.129-.554,22.167,22.167,0,0,0,20.235-7.473C63,66.7,68.923,60.838,74.829,55Z" transform="translate(3.024 25.027)" fill="#fff"/>
        <path id="Path_10" data-name="Path 10" d="M42.71,102.45a64.269,64.269,0,0,1,0,7.41Z" transform="translate(24.314 59.762)" fill="#22b6e9"/>
        <path id="Path_11" data-name="Path 11" d="M42.831,55.763v1.9a17.417,17.417,0,0,1-1.583,8.455,10.909,10.909,0,0,1-20.3-2.232A23.449,23.449,0,0,1,20.633,53.2a11.083,11.083,0,0,1,12.54-8.74,11.21,11.21,0,0,1,9.658,11.3Z" transform="translate(11.441 25.858)" fill="#fff"/>
      </g>
    </g>
    <g id="Group_1" data-name="Group 1" transform="translate(3 1.104)">
      <path id="Path_12" data-name="Path 12" d="M-62.295,0h-1.87L-79.883-22.816h-.145q.218,4.078.218,6.152V0h-1.779V-25.7h1.851l15.7,22.781h.109q-.163-3.164-.163-6.012V-25.7h1.8Zm29.822-12.885q0,6.117-3.158,9.677A11.046,11.046,0,0,1-44.344.352a11.024,11.024,0,0,1-8.694-3.56Q-56.2-6.768-56.2-12.92q0-6.135,3.185-9.659a11.141,11.141,0,0,1,8.7-3.524,11.017,11.017,0,0,1,8.694,3.542Q-32.473-19.02-32.473-12.885Zm-21.708,0q0,5.52,2.541,8.534a9.01,9.01,0,0,0,7.3,3.015q4.792,0,7.324-2.988t2.532-8.561q0-5.555-2.532-8.517t-7.288-2.962a9.109,9.109,0,0,0-7.306,2.988Q-54.181-18.387-54.181-12.885ZM-16.718,0V-25.7h1.851V0ZM4.319,0-5.573-23.73h-.145q.145,2.18.145,4.465V0H-7.352V-25.7h2.868l9.4,22.605h.109l9.4-22.605h2.8V0h-1.87V-19.477q0-2.039.218-4.219h-.145L5.5,0ZM37.5-9.07H26.717L23.014,0H20.963L31.636-25.8h1.18L43.27,0H41.183Zm-10.11-1.617h9.493l-3.612-9.264q-.454-1.09-1.089-3.023a27.582,27.582,0,0,1-1.071,3.059Zm30.076-2.268h9.783V-1.23A22.584,22.584,0,0,1,58.589.352q-6.28,0-9.629-3.437t-3.349-9.729a14.236,14.236,0,0,1,1.661-6.952,11.448,11.448,0,0,1,4.755-4.685A14.856,14.856,0,0,1,59.134-26.1a18.828,18.828,0,0,1,7.787,1.547l-.744,1.617a17.292,17.292,0,0,0-7.151-1.547A11.123,11.123,0,0,0,50.7-21.349a11.566,11.566,0,0,0-3.077,8.464q0,5.8,2.922,8.728T59.134-1.23a17.117,17.117,0,0,0,6.226-1v-9.035h-7.9ZM88.411,0h-14.5V-25.7h14.5v1.652H75.76v9.721H87.7v1.652H75.76V-1.652H88.411Z" transform="translate(839.589 659)" fill="url(#linear-gradient-2)"/>
      <path id="Path_13" data-name="Path 13" d="M-68.763-8.818H-79.091L-82.638,0H-84.6l10.224-25.088h1.13L-63.234,0h-2Zm-9.685-1.572h9.094l-3.46-9.006q-.435-1.06-1.043-2.939a27.084,27.084,0,0,1-1.026,2.974Zm33.837-14.595h1.93L-52.193,0h-1.565l-9.476-24.985h1.9l6.4,17q1.461,3.845,1.965,5.776.348-1.282,1.374-3.982Zm17.77,16.167H-37.169L-40.717,0h-1.965l10.224-25.088h1.13L-21.312,0h-2Zm-9.685-1.572h9.094l-3.46-9.006q-.435-1.06-1.043-2.939a27.084,27.084,0,0,1-1.026,2.974ZM-17.713,0V-24.985h1.774V0Zm8.972,0V-24.985h1.774V-1.641H5.152V0ZM21.775-8.818H11.447L7.9,0H5.935L16.159-25.088h1.13L27.3,0h-2ZM12.09-10.391h9.094L17.724-19.4q-.435-1.06-1.043-2.939a27.084,27.084,0,0,1-1.026,2.974ZM30.9-24.985h6.972q4.712,0,6.92,1.572A5.445,5.445,0,0,1,47-18.662a5.093,5.093,0,0,1-1.348,3.615,6.612,6.612,0,0,1-3.938,1.854v.1A7.737,7.737,0,0,1,46.2-11.2a5.461,5.461,0,0,1,1.434,4.025A6.41,6.41,0,0,1,45.3-1.863,10.346,10.346,0,0,1,38.693,0H30.9ZM32.677-13.86h5.6q3.582,0,5.208-1.171A4.211,4.211,0,0,0,45.109-18.7a3.933,3.933,0,0,0-1.834-3.623,10.607,10.607,0,0,0-5.468-1.128H32.677Zm0,1.538V-1.538h5.981q7.059,0,7.059-5.64,0-5.144-7.442-5.144ZM53.229,0V-24.985H55V-1.641H67.122V0ZM85.4,0H71.5V-24.985H85.4v1.606H73.277v9.451H84.719v1.606H73.277V-1.606H85.4Z" transform="translate(842.603 707)" fill="url(#linear-gradient-2)"/>
    </g>
  </g>
</svg>
