<?xml version="1.0" standalone="no"?>
<!DOCTYPE svg PUBLIC "-//W3C//DTD SVG 20010904//EN"
 "http://www.w3.org/TR/2001/REC-SVG-20010904/DTD/svg10.dtd">
<svg version="1.0" xmlns="http://www.w3.org/2000/svg"
 width="968.000000pt" height="968.000000pt" viewBox="0 0 968.000000 968.000000"
 preserveAspectRatio="xMidYMid meet">
<metadata>
Created by potrace 1.14, written by Peter Selinger 2001-2017
</metadata>
<g transform="translate(0.000000,968.000000) scale(0.100000,-0.100000)"
fill="#000000" stroke="none">
<path d="M4784 9255 c-57 -28 -100 -87 -109 -149 -4 -22 -5 -286 -3 -586 l3
-545 25 -49 c51 -101 145 -140 234 -96 52 25 85 65 97 118 12 51 12 1027 0
1135 -11 99 -30 141 -81 174 -44 31 -102 30 -166 -2z"/>
<path d="M3128 8151 c-68 -43 -104 -122 -87 -186 16 -58 229 -287 444 -479
148 -131 188 -141 271 -64 58 54 80 110 64 169 -10 38 -45 77 -268 302 -142
142 -269 265 -284 273 -43 22 -89 17 -140 -15z"/>
<path d="M6445 8161 c-26 -12 -134 -115 -307 -289 -227 -229 -268 -276 -278
-312 -20 -74 6 -140 75 -188 48 -35 85 -45 117 -33 34 13 351 294 442 392 140
150 201 251 189 312 -7 37 -56 85 -118 113 -60 29 -69 29 -120 5z"/>
<path d="M4728 6457 c-37 -13 -93 -41 -124 -62 -68 -47 -1134 -1107 -1254
-1247 -91 -106 -120 -125 -164 -109 -40 16 -56 64 -56 171 0 175 -48 327 -153
483 -192 283 -489 438 -812 424 -240 -10 -436 -95 -617 -265 -132 -124 -224
-269 -282 -442 -87 -264 -73 -519 49 -874 73 -212 70 -216 -138 -227 -150 -7
-221 -21 -334 -67 -299 -122 -587 -400 -712 -689 -120 -276 -122 -317 -124
-1978 -1 -1151 -2 -1135 44 -1163 26 -16 3153 -18 3212 -1 50 14 101 60 121
110 44 109 42 719 -2 809 -36 74 -161 105 -232 57 -55 -36 -72 -76 -71 -160 1
-40 -4 -141 -9 -225 -11 -155 -23 -203 -55 -216 -26 -10 -143 -7 -240 6 -62 9
-285 13 -725 13 -590 0 -637 1 -661 18 -56 38 -54 -8 -55 1035 -2 1005 -5
1083 -45 1163 -46 92 -184 114 -269 43 -39 -33 -56 -67 -77 -151 -15 -60 -17
-178 -22 -1028 -7 -1088 0 -1006 -88 -1042 -26 -11 -107 -32 -179 -48 -131
-28 -131 -28 -170 -9 -71 35 -67 -30 -72 1079 -4 1106 2 1377 38 1483 49 147
108 244 210 348 164 166 340 237 682 274 149 16 536 13 701 -6 265 -30 464 6
690 124 124 65 222 147 377 318 159 176 888 913 1212 1225 206 199 230 219
261 219 47 0 87 -33 87 -71 0 -55 -48 -256 -96 -400 -83 -249 -169 -406 -467
-850 -146 -217 -371 -549 -500 -739 -477 -698 -472 -690 -501 -775 -23 -64
-29 -104 -33 -198 -7 -145 8 -194 68 -234 67 -45 196 -28 234 31 10 15 21 60
26 104 8 81 31 158 69 232 27 53 215 334 540 810 293 429 514 762 641 968 164
266 171 277 201 280 17 2 33 -5 48 -20 12 -13 89 -135 172 -273 185 -307 327
-524 641 -978 290 -419 457 -668 485 -722 11 -22 30 -71 43 -110 l24 -70 5
-1065 c7 -1185 3 -1115 76 -1268 61 -126 -135 -113 1614 -110 l1515 3 50 26
c55 28 107 88 127 147 10 29 13 315 16 1332 3 1396 3 1381 -49 1540 -79 240
-250 467 -489 646 -208 157 -363 214 -622 229 -87 6 -113 11 -134 28 -23 18
-26 25 -20 61 3 23 25 102 50 176 70 214 81 279 80 480 0 141 -4 193 -21 265
-91 393 -355 682 -702 772 -75 19 -122 24 -216 25 -266 0 -496 -93 -681 -277
-93 -92 -151 -174 -204 -289 -50 -108 -70 -189 -77 -321 -6 -103 -8 -112 -34
-137 -18 -19 -38 -28 -59 -28 -29 0 -96 64 -681 644 -395 392 -673 660 -710
685 -119 80 -248 100 -371 58z m1322 -1521 c800 -802 898 -898 959 -930 127
-67 119 -66 796 -66 777 0 827 -5 1022 -101 223 -110 374 -312 436 -584 20
-88 21 -120 24 -1217 4 -1232 7 -1175 -53 -1215 -25 -16 -51 -18 -216 -18
-182 0 -188 1 -210 23 l-23 23 -5 693 -5 694 -30 44 c-36 51 -103 88 -160 88
-50 0 -135 -39 -163 -74 -39 -51 -42 -101 -42 -759 0 -582 -1 -635 -18 -667
-34 -70 3 -67 -829 -66 l-748 1 -36 23 c-24 14 -44 38 -55 65 -17 39 -18 104
-19 1002 l-2 960 -27 90 c-41 138 -101 252 -246 465 -174 257 -830 1241 -999
1499 -73 112 -155 249 -181 305 -77 160 -120 351 -120 526 0 80 4 87 42 89 10
1 388 -371 908 -893z m-3726 784 c224 -57 383 -229 423 -455 18 -105 13 -350
-10 -452 -66 -293 -279 -475 -555 -475 -158 0 -290 59 -400 177 -71 75 -113
158 -144 281 -19 75 -22 116 -22 259 0 267 38 381 173 516 148 148 335 200
535 149z m5318 9 c29 -6 91 -29 138 -51 142 -68 248 -194 297 -353 26 -86 26
-405 0 -518 -66 -280 -287 -467 -552 -467 -197 0 -394 117 -483 287 -92 176
-116 538 -49 732 92 265 376 426 649 370z"/>
<path d="M8521 3110 c-42 -10 -79 -37 -108 -80 -27 -39 -31 -130 -9 -183 17
-41 74 -91 121 -107 135 -45 282 101 245 242 -16 56 -76 115 -127 123 -74 12
-88 12 -122 5z"/>
<path d="M3167 2089 c-44 -23 -83 -79 -93 -132 -14 -79 44 -165 126 -187 111
-30 227 80 206 194 -13 68 -107 147 -173 146 -15 -1 -45 -10 -66 -21z"/>
</g>
</svg>
